<svg version="1.2" xmlns="http://www.w3.org/2000/svg" viewBox="0 0 525 419" width="525" height="419">
	<title>undraw_warning_re_eoyh-svg</title>
	<style>
		.s0 { fill: #3f3d56 } 
		.s1 { fill: #cccccc } 
		.s2 { fill: #ffdaa4 } 
		.s3 { fill: #2f2e41 } 
		.s4 { fill: #e6e6e6 } 
		.s5 { fill: #6c63ff } 
		.s6 { fill: #ffffff } 
	</style>
	<path id="Layer" fill-rule="evenodd" class="s0" d="m251.7 416.4l-159.4 0.1c-8 0-15.2-4.2-19.2-11.1-2-3.5-3-7.3-3-11.1 0-3.8 1-7.6 3-11.1l79.7-145c4-6.9 11.1-11.1 19.2-11.1 8 0 15.1 4.1 19.1 11.1l79.8 145c2 3.5 3 7.3 3 11.1 0 3.8-1 7.6-3 11-4 7-11.1 11.1-19.2 11.1q0 0 0 0zm-179.6-22.1c0 3.5 17.6-4 19.4-0.8 3.7 6.3-6.5 21 0.8 21 0 0 173.3-3.9 176.9-10.2 1.8-3.1 2.7-6.6 2.7-10 0-3.5-0.9-7-2.7-10.1l-79.8-145c-3.6-6.3-10.2-10.1-17.4-10.1-7.3 0-99.9 161.8-99.9 165.2z"/>
	<path id="Layer" class="s0" d="m253.5 414.4c-2 4 91.6 2.8 92.7 2.8 0 0 26.3-0.6 26.9-1.5q0.4-0.8 0.4-1.6 0-0.8-0.4-1.5l-12.1-22c-0.6-1-1.6-1.6-2.7-1.6q0 0-0.2 0.2c-16.1 14.4-36.1 24-57.7 24.3-23.1 0.3-46.8 0.7-46.9 0.9z"/>
	<path id="Layer" class="s1" d="m0 417.1c0 0.6 0.5 1.2 1.2 1.2l522.3-0.2c0.6 0 1.2-0.5 1.2-1.2 0-0.7-0.6-1.2-1.2-1.2l-522.3 0.2c-0.7 0-1.2 0.5-1.2 1.2z"/>
	<g id="Layer">
		<path id="Layer" class="s2" d="m403.9 411.3h-9.1l-4.3-34.9h13.4v34.9z"/>
		<path id="Layer" class="s3" d="m372.9 411.1c-0.3 0.5-0.4 2-0.4 2.6 0 1.7 1.3 3 3 3h28c1.2 0 2.1-0.9 2.1-2.1v-1.1c0 0 1.4-3.5-1.4-7.9 0 0-3.6 3.4-8.9-1.9l-1.5-2.8-11.3 8.3-6.3 0.7c-1.4 0.2-2.6 0-3.3 1.2z"/>
	</g>
	<g id="Layer">
		<path id="Layer" class="s2" d="m369.2 381.5l-8.6 2.9-15.2-31.7 12.6-4.3 11.2 33.1z"/>
		<path id="Layer" class="s3" d="m339.8 391.2c-0.1 0.5 0.2 2 0.4 2.6 0.5 1.6 2.3 2.4 3.9 1.9l26.5-9c1.1-0.4 1.7-1.5 1.3-2.6l-0.3-1.1c0 0 0.1-3.8-3.9-7 0 0-2.3 4.4-9 1l-2.4-2.1-8.1 11.4-5.7 2.8c-1.2 0.6-2.4 0.8-2.7 2.1q0 0 0 0z"/>
	</g>
	<path id="Layer" class="s3" d="m355.2 179.1l-17.5 58.1-20.7 52.3 32.8 74.6 12.1-5.4-14.5-68.6 30.5-46.5 14.2 145.2 12.2-0.7 16.5-175.3 2.3-38.1-67.9 4.4z"/>
	<path id="Layer" class="s4" d="m408.2 50.4l-25.7 4.7-2 11.5-15.5 7.4-8.1 84.5c0 0-13.5 17.6-2.7 23l68.9-6.8c0 0 3.4-12.5 0-13.7-3.4-1.2-3.4-31-3.4-31l15.5-61.4-22.9-8.1z"/>
	<path id="Layer" class="s2" d="m393.1 50.2c-11.5 0-20.8-9.3-20.8-20.8 0-11.4 9.3-20.7 20.8-20.7 11.4 0 20.7 9.3 20.7 20.7 0 11.5-9.3 20.8-20.7 20.8z"/>
	<path id="Layer" class="s3" d="m406.8 32.5c-1.7 0.9-0.1 5.2-1.1 5.6-1.2 0.4-5.6-4.5-5.6-10.1 0-1.6 0.3-2.5 0-4.4-0.5-2.7-2-5.7-3.4-5.6-0.8 0-1.6 1.2-1.7 2.2-0.1 1.4 1.4 2 1.1 2.8-0.3 1.5-6.2 2.5-8.4 0-1.6-2-0.3-5.4-1.1-5.6-0.5-0.1-1.1 1.8-3.3 3.9-0.9 0.8-2.1 2-2.8 1.7-1.1-0.5-0.3-3.9-0.6-3.9-0.2-0.1-0.4 2.3-1.7 4.5-1.6 2.7-5.1 4.8-6.7 3.9-1-0.6-1.1-2.2-1.1-3.4-0.1-2.5-3.8-8.4-2.9-11.1 2-5.5 5.3-1.6 6.8-3.4 2-2.5 3.9-1.2 7.3-4 3.3-2.7 3.3-5.4 5.6-5.6 2-0.1 2.7 2 5 1.7 2-0.3 2.4-1.9 3.9-1.7 1.4 0.2 1.5 1.7 3.4 2.3 1.2 0.3 1.5-0.2 2.8 0 2.8 0.3 4.7 2.8 5 3.3 1.4 1.9 0.9 2.6 2.3 4.5 1.2 1.6 3.9 0.9 4.9 1.7 3.3 2.6 4.7 7.5 4.8 13 0 3.8-0.5 5.7-1.6 10.6-0.9 3.7-4.8 8.4-7 10.6-0.6 0.5-2.2 2.1-3.3 1.6-1.1-0.4-1.2-2.5-1.2-2.8 0-0.9 0.3-2.1 2.3-5 2.1-3.1 2.9-3.4 2.8-4.5-0.2-1.8-3.2-3.5-4.5-2.8q0 0 0 0z"/>
	<g id="Layer">
		<path id="Layer" class="s2" d="m334.5 225.8c-0.7 5.4 1.6 10.1 5.1 10.5 3.4 0.4 6.7-3.7 7.3-9.1 0.3-2.3 0.1-4.6-0.6-6.3l2.4-23-10.8-0.9-1.2 22.7c-1.1 1.6-1.9 3.7-2.2 6.1q0 0 0 0z"/>
		<path id="Layer" class="s4" d="m365.5 73.5c0 0-5.6 0.1-9.3 7.3-2 3.8-12.5 75.6-12.5 75.6l-9.7 58.8 16.5 0.1 12.9-55.7 10.8-32.3c0 0-8.7-53.8-8.7-53.8z"/>
	</g>
	<path id="Layer" class="s2" d="m411.9 217.1c-1.6 5.2-0.1 10.3 3.2 11.3 3.3 1 7.2-2.4 8.8-7.6 0.7-2.3 0.8-4.6 0.5-6.4l6.4-22.2-10.5-2.8-5.2 22.1c-1.3 1.4-2.5 3.4-3.2 5.6z"/>
	<path id="Layer" class="s4" d="m423.4 69.6c0 0 8.1-6.1 14.9 3.4 6.7 9.5 9.5 87.1 9.5 87.1l-18.9 48-14.2-4.7 13.5-58.8-23.7-44.6 18.9-30.4z"/>
	<g id="Layer">
		<path id="Layer" class="s5" d="m218.5 384.4c-40.4 0-73-32.6-73-73 0-40.3 32.6-73 73-73 40.3 0 73 32.7 73 73 0 40.4-32.7 73-73 73z"/>
		<g id="Layer">
			<path id="Layer" class="s6" d="m218.5 356.2c-3.7 0-6.7-3-6.7-6.7 0-3.7 3-6.7 6.7-6.7 3.7 0 6.7 3 6.7 6.7 0 3.7-3 6.7-6.7 6.7z"/>
			<path id="Layer" class="s6" d="m218.5 266.7c-0.7 4.1 0.5 4.9 0.5 22.6 0 17.6 3.6 41.3-0.5 41.3-4.2 0-5.7-48.8-20-53.2-16.9-5 22-24 20-10.7z"/>
		</g>
	</g>
	<path id="Layer" class="s0" d="m120.5 348.7l-6.6 13.9c8-5.7 20.4-10.6 30.3-13.2-9.2-4.5-20.5-11.7-27.2-18.8l3.8 14.7c-44.5-9.1-76.5-43.2-76.5-82.3l-1.6-0.5c0 40.8 31.5 77 77.8 86.2z"/>
</svg>