<svg xmlns="http://www.w3.org/2000/svg" viewBox="0 0 512 512"><path d="M0 118.15h512v39.38H0zm485.264-78.765H26.736C17.028 50.773 9.557 64.126 5.013 78.77h501.974c-4.544-14.644-12.015-27.997-21.723-39.385zM0 196.92h512v39.38H0zm0 78.77h512v39.38H0zm0 78.77h512v39.38H0zm506.987 78.771H5.013c4.543 14.644 12.015 27.996 21.723 39.384h458.527c9.709-11.388 17.18-24.74 21.724-39.384z" fill="#f5f5f5"/><path d="M400 0H112C77.852 0 47.279 15.287 26.736 39.385h458.527C464.721 15.287 434.148 0 400 0zM0 157.54h512v39.38H0zM512 112c0-11.571-1.755-22.731-5.013-33.23H5.013C1.755 89.269 0 100.429 0 112v6.154h512V112zM0 236.31h512v39.38H0zM512 400v-6.154H0V400c0 11.571 1.755 22.731 5.013 33.231h501.974c3.258-10.5 5.013-21.66 5.013-33.231zm-26.736 72.615H26.736C47.279 496.713 77.852 512 112 512h288c34.148 0 64.721-15.287 85.264-39.385zM0 315.08h512v39.38H0z" fill="#ff4b55"/><path d="M275.692 0H112C50.144 0 0 50.144 0 112v163.692h275.692V0z" fill="#41479b"/><path d="M29.745 43.063c-.262.829.681 1.515 1.389 1.009l5.463-3.904 5.463 3.904c.707.506 1.651-.18 1.389-1.009l-2.025-6.402 5.402-3.989c.699-.517.339-1.626-.531-1.633l-6.714-.052-1.146-3.436a112.521 112.521 0 00-8.23 7.952l1.567 1.158-2.027 6.402zm7.71 34.692l2.124 6.37 6.714.052c.869.007 1.23 1.116.531 1.633l-5.402 3.989 2.025 6.402c.262.829-.681 1.514-1.389 1.009l-5.463-3.905-5.463 3.905c-.707.506-1.651-.18-1.389-1.009l2.025-6.402-5.402-3.989c-.699-.516-.339-1.626.53-1.633l6.714-.052 2.124-6.37c.279-.825 1.446-.825 1.721 0zm0 58.933l2.124 6.37 6.714.052c.869.007 1.23 1.116.531 1.633l-5.402 3.989 2.025 6.402c.262.829-.681 1.514-1.389 1.009l-5.463-3.904-5.463 3.904c-.707.505-1.651-.18-1.389-1.009l2.025-6.402-5.402-3.989c-.699-.516-.339-1.626.53-1.633l6.714-.052 2.124-6.37c.279-.825 1.446-.825 1.721 0zm0 54.146l2.124 6.37 6.714.052c.869.007 1.23 1.116.531 1.633l-5.402 3.989 2.025 6.402c.262.829-.681 1.514-1.389 1.009l-5.463-3.905-5.463 3.905c-.707.505-1.651-.18-1.389-1.009l2.025-6.402-5.402-3.989c-.699-.516-.339-1.626.53-1.633l6.714-.052 2.124-6.37c.279-.825 1.446-.825 1.721 0zm0 49.272l2.124 6.37 6.714.052c.869.007 1.23 1.116.531 1.633l-5.402 3.989 2.025 6.402c.262.829-.681 1.514-1.389 1.009l-5.463-3.904-5.463 3.904c-.707.505-1.651-.18-1.389-1.009l2.025-6.402-5.402-3.989c-.699-.516-.339-1.626.53-1.633l6.714-.052 2.124-6.37c.279-.825 1.446-.825 1.721 0zM63.318 49.781l2.124 6.37 6.714.052c.869.007 1.23 1.116.531 1.632l-5.402 3.989 2.025 6.402c.262.829-.681 1.515-1.389 1.009L62.46 65.33l-5.463 3.905c-.707.506-1.651-.18-1.389-1.009l2.025-6.402-5.401-3.989c-.699-.516-.339-1.626.53-1.632l6.714-.052 2.124-6.37c.276-.825 1.443-.825 1.718 0zm0 58.933l2.124 6.37 6.714.052c.869.007 1.23 1.116.531 1.633l-5.402 3.989 2.025 6.402c.262.829-.681 1.515-1.389 1.009l-5.463-3.905-5.463 3.905c-.707.506-1.651-.18-1.389-1.009l2.025-6.402-5.401-3.989c-.699-.516-.339-1.626.53-1.633l6.714-.052 2.124-6.37c.278-.825 1.445-.825 1.72 0zm0 55.991l2.124 6.37 6.714.052c.869.007 1.23 1.116.531 1.633l-5.402 3.989 2.025 6.402c.262.829-.681 1.514-1.389 1.009l-5.463-3.905-5.463 3.905c-.707.506-1.651-.18-1.389-1.009l2.025-6.402-5.401-3.989c-.699-.516-.339-1.626.53-1.633l6.714-.052 2.124-6.37c.278-.824 1.445-.824 1.72 0zm0 50.282l2.124 6.37 6.714.052c.869.007 1.23 1.116.531 1.633l-5.402 3.989 2.025 6.402c.262.829-.681 1.515-1.389 1.009l-5.463-3.904-5.463 3.904c-.707.506-1.651-.18-1.389-1.009l2.025-6.402-5.401-3.989c-.699-.516-.339-1.626.53-1.633l6.714-.052 2.124-6.37c.278-.825 1.445-.825 1.72 0zM89.181 24.618l2.124 6.37 6.714.052c.869.007 1.23 1.116.531 1.632l-5.402 3.989 2.025 6.402c.262.829-.681 1.514-1.389 1.009l-5.463-3.905-5.463 3.905c-.707.506-1.651-.18-1.389-1.009l2.025-6.402-5.401-3.989c-.699-.516-.339-1.626.53-1.632l6.714-.052 2.124-6.37c.278-.824 1.445-.824 1.72 0zm0 53.137l2.124 6.37 6.714.052c.869.007 1.23 1.116.531 1.633l-5.402 3.989 2.025 6.402c.262.829-.681 1.514-1.389 1.009l-5.463-3.905-5.463 3.905c-.707.506-1.651-.18-1.389-1.009l2.025-6.402-5.401-3.989c-.699-.516-.339-1.626.53-1.633l6.714-.052 2.124-6.37c.278-.825 1.445-.825 1.72 0zm0 58.933l2.124 6.37 6.714.052c.869.007 1.23 1.116.531 1.633l-5.402 3.989 2.025 6.402c.262.829-.681 1.514-1.389 1.009l-5.463-3.904-5.463 3.904c-.707.505-1.651-.18-1.389-1.009l2.025-6.402-5.401-3.989c-.699-.516-.339-1.626.53-1.633l6.714-.052 2.124-6.37c.278-.825 1.445-.825 1.72 0zm0 54.146l2.124 6.37 6.714.052c.869.007 1.23 1.116.531 1.633l-5.402 3.989 2.025 6.402c.262.829-.681 1.514-1.389 1.009l-5.463-3.905-5.463 3.905c-.707.505-1.651-.18-1.389-1.009l2.025-6.402-5.401-3.989c-.699-.516-.339-1.626.53-1.633l6.714-.052 2.124-6.37c.278-.825 1.445-.825 1.72 0zm0 49.272l2.124 6.37 6.714.052c.869.007 1.23 1.116.531 1.633l-5.402 3.989 2.025 6.402c.262.829-.681 1.514-1.389 1.009l-5.463-3.904-5.463 3.904c-.707.505-1.651-.18-1.389-1.009l2.025-6.402-5.401-3.989c-.699-.516-.339-1.626.53-1.633l6.714-.052 2.124-6.37c.278-.825 1.445-.825 1.72 0zm25.863-190.325l2.124 6.37 6.714.052c.869.007 1.23 1.116.53 1.632l-5.401 3.989 2.025 6.402c.262.829-.681 1.515-1.389 1.009l-5.463-3.905-5.463 3.905c-.707.506-1.651-.18-1.389-1.009l2.025-6.402-5.402-3.989c-.699-.516-.339-1.626.531-1.632l6.714-.052 2.124-6.37c.279-.825 1.445-.825 1.72 0zm0 58.933l2.124 6.37 6.714.052c.869.007 1.23 1.116.53 1.633l-5.401 3.989 2.025 6.402c.262.829-.681 1.515-1.389 1.009l-5.463-3.905-5.463 3.905c-.707.506-1.651-.18-1.389-1.009l2.025-6.402-5.402-3.989c-.699-.516-.339-1.626.531-1.633l6.714-.052 2.124-6.37c.279-.825 1.445-.825 1.72 0zm0 55.991l2.124 6.37 6.714.052c.869.007 1.23 1.116.53 1.633l-5.401 3.989 2.025 6.402c.262.829-.681 1.514-1.389 1.009l-5.463-3.905-5.463 3.905c-.707.506-1.651-.18-1.389-1.009l2.025-6.402-5.402-3.989c-.699-.516-.339-1.626.531-1.633l6.714-.052 2.124-6.37c.279-.824 1.445-.824 1.72 0zm0 50.282l2.124 6.37 6.714.052c.869.007 1.23 1.116.53 1.633l-5.401 3.989 2.025 6.402c.262.829-.681 1.515-1.389 1.009l-5.463-3.904-5.463 3.904c-.707.506-1.651-.18-1.389-1.009l2.025-6.402-5.402-3.989c-.699-.516-.339-1.626.531-1.633l6.714-.052 2.124-6.37c.279-.825 1.445-.825 1.72 0zm25.863-190.369l2.124 6.37 6.714.052c.869.007 1.23 1.116.53 1.632l-5.401 3.989 2.025 6.402c.262.829-.681 1.514-1.389 1.009l-5.463-3.905-5.463 3.905c-.707.506-1.651-.18-1.389-1.009l2.025-6.402-5.401-3.989c-.699-.516-.339-1.626.531-1.632l6.714-.052 2.124-6.37c.278-.824 1.444-.824 1.719 0zm0 53.137l2.124 6.37 6.714.052c.869.007 1.23 1.116.53 1.633l-5.401 3.989L146.9 96.2c.262.829-.681 1.514-1.389 1.009l-5.463-3.905-5.463 3.905c-.707.506-1.651-.18-1.389-1.009l2.025-6.402-5.401-3.989c-.699-.516-.339-1.626.531-1.633l6.714-.052 2.124-6.37c.277-.824 1.443-.824 1.718.001zm0 58.933l2.124 6.37 6.714.052c.869.007 1.23 1.116.53 1.633l-5.401 3.989 2.025 6.402c.262.829-.681 1.514-1.389 1.009l-5.463-3.904-5.463 3.904c-.707.505-1.651-.18-1.389-1.009l2.025-6.402-5.401-3.989c-.699-.516-.339-1.626.531-1.633l6.714-.052 2.124-6.37c.278-.825 1.444-.825 1.719 0zm0 54.146l2.124 6.37 6.714.052c.869.007 1.23 1.116.53 1.633l-5.401 3.989 2.025 6.402c.262.829-.681 1.514-1.389 1.009l-5.463-3.905-5.463 3.905c-.707.505-1.651-.18-1.389-1.009l2.025-6.402-5.401-3.989c-.699-.516-.339-1.626.531-1.633l6.714-.052 2.124-6.37c.278-.825 1.444-.825 1.719 0zm0 49.272l2.124 6.37 6.714.052c.869.007 1.23 1.116.53 1.633l-5.401 3.989 2.025 6.402c.262.829-.681 1.514-1.389 1.009l-5.463-3.904-5.463 3.904c-.707.505-1.651-.18-1.389-1.009l2.025-6.402-5.401-3.989c-.699-.516-.339-1.626.531-1.633l6.714-.052 2.124-6.37c.278-.825 1.444-.825 1.719 0zM166.77 49.781l2.124 6.37 6.714.052c.869.007 1.23 1.116.53 1.632l-5.402 3.989 2.025 6.402c.262.829-.682 1.515-1.389 1.009l-5.463-3.905-5.463 3.905c-.707.506-1.651-.18-1.389-1.009l2.025-6.402-5.401-3.989c-.699-.516-.339-1.626.53-1.632l6.714-.052 2.124-6.37c.28-.825 1.446-.825 1.721 0zm0 58.933l2.124 6.37 6.714.052c.869.007 1.23 1.116.53 1.633l-5.402 3.989 2.025 6.402c.262.829-.682 1.515-1.389 1.009l-5.463-3.905-5.463 3.905c-.707.506-1.651-.18-1.389-1.009l2.025-6.402-5.401-3.989c-.699-.516-.339-1.626.53-1.633l6.714-.052 2.124-6.37c.28-.825 1.446-.825 1.721 0zm0 55.991l2.124 6.37 6.714.052c.869.007 1.23 1.116.53 1.633l-5.402 3.989 2.025 6.402c.262.829-.682 1.514-1.389 1.009l-5.463-3.905-5.463 3.905c-.707.506-1.651-.18-1.389-1.009l2.025-6.402-5.401-3.989c-.699-.516-.339-1.626.53-1.633l6.714-.052 2.124-6.37c.28-.824 1.446-.824 1.721 0zm0 50.282l2.124 6.37 6.714.052c.869.007 1.23 1.116.53 1.633l-5.402 3.989 2.025 6.402c.262.829-.682 1.515-1.389 1.009l-5.463-3.904-5.463 3.904c-.707.506-1.651-.18-1.389-1.009l2.025-6.402-5.401-3.989c-.699-.516-.339-1.626.53-1.633l6.714-.052 2.124-6.37c.28-.825 1.446-.825 1.721 0zm25.863-190.369l2.124 6.37 6.714.052c.869.007 1.23 1.116.53 1.632l-5.402 3.989 2.025 6.402c.262.829-.682 1.514-1.389 1.009l-5.463-3.905-5.463 3.905c-.707.506-1.651-.18-1.389-1.009l2.025-6.402-5.402-3.989c-.699-.516-.339-1.626.531-1.632l6.714-.052 2.124-6.37c.28-.824 1.446-.824 1.721 0zm0 53.137l2.124 6.37 6.714.052c.869.007 1.23 1.116.53 1.633l-5.402 3.989 2.025 6.402c.262.829-.682 1.514-1.389 1.009l-5.463-3.905-5.463 3.905c-.707.506-1.651-.18-1.389-1.009l2.025-6.402-5.402-3.989c-.699-.516-.339-1.626.531-1.633l6.714-.052 2.124-6.37c.28-.825 1.446-.825 1.721 0zm0 58.933l2.124 6.37 6.714.052c.869.007 1.23 1.116.53 1.633l-5.402 3.989 2.025 6.402c.262.829-.682 1.514-1.389 1.009l-5.463-3.904-5.463 3.904c-.707.505-1.651-.18-1.389-1.009l2.025-6.402-5.402-3.989c-.699-.516-.339-1.626.531-1.633l6.714-.052 2.124-6.37c.28-.825 1.446-.825 1.721 0zm0 54.146l2.124 6.37 6.714.052c.869.007 1.23 1.116.53 1.633l-5.402 3.989 2.025 6.402c.262.829-.682 1.514-1.389 1.009l-5.463-3.905-5.463 3.905c-.707.505-1.651-.18-1.389-1.009l2.025-6.402-5.402-3.989c-.699-.516-.339-1.626.531-1.633l6.714-.052 2.124-6.37c.28-.825 1.446-.825 1.721 0zm0 49.272l2.124 6.37 6.714.052c.869.007 1.23 1.116.53 1.633l-5.402 3.989 2.025 6.402c.262.829-.682 1.514-1.389 1.009l-5.463-3.904-5.463 3.904c-.707.505-1.651-.18-1.389-1.009l2.025-6.402-5.402-3.989c-.699-.516-.339-1.626.531-1.633l6.714-.052 2.124-6.37c.28-.825 1.446-.825 1.721 0zm25.863-190.325l2.124 6.37 6.715.052c.869.007 1.23 1.116.53 1.632l-5.402 3.989 2.025 6.402c.262.829-.682 1.515-1.389 1.009l-5.463-3.905-5.463 3.905c-.707.506-1.651-.18-1.389-1.009l2.025-6.402-5.402-3.989c-.699-.516-.339-1.626.53-1.632l6.715-.052 2.124-6.37c.279-.825 1.445-.825 1.72 0zm0 58.933l2.124 6.37 6.715.052c.869.007 1.23 1.116.53 1.633l-5.402 3.989 2.025 6.402c.262.829-.682 1.515-1.389 1.009l-5.463-3.905-5.463 3.905c-.707.506-1.651-.18-1.389-1.009l2.025-6.402-5.402-3.989c-.699-.516-.339-1.626.53-1.633l6.715-.052 2.124-6.37c.279-.825 1.445-.825 1.72 0zm0 55.991l2.124 6.37 6.715.052c.869.007 1.23 1.116.53 1.633l-5.402 3.989 2.025 6.402c.262.829-.682 1.514-1.389 1.009l-5.463-3.905-5.463 3.905c-.707.506-1.651-.18-1.389-1.009l2.025-6.402-5.402-3.989c-.699-.516-.339-1.626.53-1.633l6.715-.052 2.124-6.37c.279-.824 1.445-.824 1.72 0zm0 50.282l2.124 6.37 6.715.052c.869.007 1.23 1.116.53 1.633l-5.402 3.989 2.025 6.402c.262.829-.682 1.515-1.389 1.009l-5.463-3.904-5.463 3.904c-.707.506-1.651-.18-1.389-1.009l2.025-6.402-5.402-3.989c-.699-.516-.339-1.626.53-1.633l6.715-.052 2.124-6.37c.279-.825 1.445-.825 1.72 0zm25.863-190.369l2.124 6.37 6.714.052c.869.007 1.23 1.116.531 1.632l-5.402 3.989 2.025 6.402c.262.829-.682 1.514-1.389 1.009l-5.463-3.905-5.463 3.905c-.707.506-1.651-.18-1.389-1.009l2.025-6.402-5.402-3.989c-.699-.516-.339-1.626.53-1.632l6.714-.052 2.124-6.37c.28-.824 1.446-.824 1.721 0zm0 53.137l2.124 6.37 6.714.052c.869.007 1.23 1.116.531 1.633l-5.402 3.989 2.025 6.402c.262.829-.682 1.514-1.389 1.009l-5.463-3.905-5.463 3.905c-.707.506-1.651-.18-1.389-1.009l2.025-6.402-5.402-3.989c-.699-.516-.339-1.626.53-1.633l6.714-.052 2.124-6.37c.28-.825 1.446-.825 1.721 0zm0 58.933l2.124 6.37 6.714.052c.869.007 1.23 1.116.531 1.633l-5.402 3.989 2.025 6.402c.262.829-.682 1.514-1.389 1.009l-5.463-3.904-5.463 3.904c-.707.505-1.651-.18-1.389-1.009l2.025-6.402-5.402-3.989c-.699-.516-.339-1.626.53-1.633l6.714-.052 2.124-6.37c.28-.825 1.446-.825 1.721 0zm0 54.146l2.124 6.37 6.714.052c.869.007 1.23 1.116.531 1.633l-5.402 3.989 2.025 6.402c.262.829-.682 1.514-1.389 1.009l-5.463-3.905-5.463 3.905c-.707.505-1.651-.18-1.389-1.009l2.025-6.402-5.402-3.989c-.699-.516-.339-1.626.53-1.633l6.714-.052 2.124-6.37c.28-.825 1.446-.825 1.721 0zm0 49.272l2.124 6.37 6.714.052c.869.007 1.23 1.116.531 1.633l-5.402 3.989 2.025 6.402c.262.829-.682 1.514-1.389 1.009l-5.463-3.904-5.463 3.904c-.707.505-1.651-.18-1.389-1.009l2.025-6.402-5.402-3.989c-.699-.516-.339-1.626.53-1.633l6.714-.052 2.124-6.37c.28-.825 1.446-.825 1.721 0z" fill="#f5f5f5"/></svg>