<svg version="1.2" xmlns="http://www.w3.org/2000/svg" viewBox="0 0 200 200" width="200" height="200">
	<title>small-image</title>
	<style>
		.s0 { fill: none;stroke: #575757;stroke-width: 4.4 } 
		.s1 { fill: #575757 } 
		.s2 { fill: #ffffff } 
	</style>
	<g id="Folder 1">
		<path id="Shape 1" class="s0" d="m13 31c0-5.5 4.5-10 10-10h152c5.5 0 10 4.5 10 10v50c0 5.5-4.5 10-10 10h-152c-5.5 0-10-4.5-10-10z"/>
		<path id="Shape 2" class="s1" d="m123 41c0-5.5 4.5-10 10-10h29c5.5 0 10 4.5 10 10v30c0 5.5-4.5 10-10 10h-29c-5.5 0-10-4.5-10-10z"/>
		<path id="Shape 3" class="s1" d="m111.6 40.8l-0.1 5-48.2-0.5v-5z"/>
		<path id="Shape 4" class="s1" d="m112.6 65.4v5h-81v-5z"/>
	</g>
	<g id="Folder 1 copy">
		<path id="Shape 1" class="s0" d="m13 121c0-5.5 4.5-10 10-10h152c5.5 0 10 4.5 10 10v50c0 5.5-4.5 10-10 10h-152c-5.5 0-10-4.5-10-10z"/>
		<path id="Shape 2" class="s1" d="m123 131c0-5.5 4.5-10 10-10h29c5.5 0 10 4.5 10 10v30c0 5.5-4.5 10-10 10h-29c-5.5 0-10-4.5-10-10z"/>
		<path id="Shape 3" class="s1" d="m111.6 130.8l-0.1 5-48.2-0.5v-5z"/>
		<path id="Shape 4" class="s1" d="m112.6 155.4v5h-81v-5z"/>
		<path id="camera" fill-rule="evenodd" class="s2" d="m164 48.8v16.5c0 1.6-1.7 3.1-3 3.1h-27.1c-1.4 0-2.9-1.4-2.9-3.1v-16.6c0-2 2.1-3 3.1-3h4.7l2.5-4.1h12.4l2.5 4.1h4.7c2.1 0 3.1 2.1 3.1 3.1zm-9.3 7.2c0-4-3.2-7.2-7.2-7.2-4 0-7.2 3.2-7.2 7.2 0 4 3.2 7.2 7.2 7.2 4 0 7.2-3.2 7.2-7.2z"/>
		<path id="camera copy 2" fill-rule="evenodd" class="s2" d="m164 139.8v16.5c0 1.6-1.7 3.1-3 3.1h-27.1c-1.4 0-2.9-1.4-2.9-3.1v-16.6c0-2 2.1-3 3.1-3h4.7l2.5-4.1h12.4l2.5 4.1h4.7c2.1 0 3.1 2 3.1 3.1zm-9.3 7.2c0-4-3.2-7.2-7.2-7.2-4 0-7.2 3.2-7.2 7.2 0 4 3.2 7.2 7.2 7.2 4 0 7.2-3.2 7.2-7.2z"/>
	</g>
</svg>